<?xml version="1.0" encoding="UTF-8" standalone="no"?>
<svg
   xmlns:dc="http://purl.org/dc/elements/1.1/"
   xmlns:cc="http://creativecommons.org/ns#"
   xmlns:rdf="http://www.w3.org/1999/02/22-rdf-syntax-ns#"
   xmlns:svg="http://www.w3.org/2000/svg"
   xmlns="http://www.w3.org/2000/svg"
   viewBox="0 0 1510.4268 370.96268"
   height="370.96268"
   width="1510.4268"
   xml:space="preserve"
   id="svg2"
   version="1.1"><metadata
     id="metadata8"><rdf:RDF><cc:Work
         rdf:about=""><dc:format>image/svg+xml</dc:format><dc:type
           rdf:resource="http://purl.org/dc/dcmitype/StillImage" /></cc:Work></rdf:RDF></metadata><defs
     id="defs6"><clipPath
       id="clipPath18"
       clipPathUnits="userSpaceOnUse"><path
         id="path16"
         d="M 0,278.222 H 1132.825 V 0 H 0 Z" /></clipPath></defs><g
     transform="matrix(1.3333333,0,0,-1.3333333,0,370.96267)"
     id="g10"><g
       id="g12"><g
         clip-path="url(#clipPath18)"
         id="g14"><g
           transform="translate(1072.6792,140.5379)"
           id="g20"><path
             id="path22"
             style="fill:#2b2b2a;fill-opacity:1;fill-rule:nonzero;stroke:none"
             d="M 0,0 H 17.071 V 30.768 H 39.7 V 0 H 60.146 V -16.872 H 39.7 v -54.786 c 0,-2.382 0.1,-4.435 0.298,-6.153 0.198,-1.722 0.66,-3.176 1.39,-4.367 0.725,-1.192 1.817,-2.084 3.275,-2.68 1.454,-0.596 3.44,-0.893 5.954,-0.893 1.589,0 3.177,0.031 4.765,0.099 1.588,0.066 3.176,0.298 4.764,0.694 v -17.467 c -2.516,-0.264 -4.962,-0.528 -7.345,-0.794 -2.382,-0.264 -4.832,-0.398 -7.344,-0.398 -5.955,0 -10.754,0.565 -14.392,1.688 -3.641,1.123 -6.485,2.779 -8.535,4.963 -2.053,2.183 -3.443,4.927 -4.169,8.237 -0.728,3.307 -1.16,7.078 -1.29,11.314 v 60.543 l -17.071,0 z m -58.356,-87.538 c 5.028,0 9.395,1.058 13.101,3.176 3.703,2.115 6.749,4.895 9.131,8.337 2.382,3.44 4.135,7.311 5.26,11.612 1.123,4.299 1.687,8.701 1.687,13.201 0,4.367 -0.564,8.734 -1.687,13.101 -1.125,4.366 -2.878,8.237 -5.26,11.612 -2.382,3.374 -5.428,6.12 -9.131,8.238 -3.706,2.115 -8.073,3.176 -13.101,3.176 -5.031,0 -9.398,-1.061 -13.101,-3.176 -3.706,-2.118 -6.749,-4.864 -9.131,-8.238 -2.382,-3.375 -4.138,-7.246 -5.261,-11.612 -1.126,-4.367 -1.686,-8.734 -1.686,-13.101 0,-4.5 0.56,-8.902 1.686,-13.201 1.123,-4.301 2.879,-8.172 5.261,-11.612 2.382,-3.442 5.425,-6.222 9.131,-8.337 3.703,-2.118 8.07,-3.176 13.101,-3.176 m 0,-17.865 c -8.207,0 -15.517,1.359 -21.934,4.07 -6.421,2.71 -11.845,6.451 -16.277,11.214 -4.436,4.765 -7.81,10.453 -10.123,17.072 -2.318,6.615 -3.474,13.895 -3.474,21.835 0,7.806 1.156,15.017 3.474,21.636 2.313,6.616 5.687,12.307 10.123,17.072 4.432,4.762 9.856,8.5 16.277,11.214 6.417,2.71 13.727,4.069 21.934,4.069 8.204,0 15.514,-1.359 21.934,-4.069 6.417,-2.714 11.842,-6.452 16.277,-11.214 4.432,-4.765 7.807,-10.456 10.124,-17.072 2.313,-6.619 3.473,-13.83 3.473,-21.636 0,-7.94 -1.16,-15.22 -3.473,-21.835 -2.317,-6.619 -5.692,-12.307 -10.124,-17.072 -4.435,-4.763 -9.86,-8.504 -16.277,-11.214 -6.42,-2.711 -13.73,-4.07 -21.934,-4.07 m -91.905,144.507 h 22.629 v -141.728 h -22.629 z M -193.113,0 h 22.629 v -102.624 h -22.629 z m 0,39.104 h 22.629 V 17.666 h -22.629 z m -39.898,-90.515 c 0,4.631 -0.595,9.131 -1.787,13.498 -1.19,4.368 -2.977,8.238 -5.359,11.613 -2.382,3.374 -5.36,6.085 -8.933,8.138 -3.572,2.05 -7.676,3.077 -12.306,3.077 -9.529,0 -16.708,-3.31 -21.538,-9.925 -4.832,-6.619 -7.245,-15.418 -7.245,-26.401 0,-5.161 0.626,-9.959 1.886,-14.391 1.256,-4.435 3.142,-8.238 5.657,-11.413 2.512,-3.177 5.524,-5.692 9.032,-7.543 3.504,-1.856 7.574,-2.78 12.208,-2.78 5.161,0 9.528,1.058 13.1,3.176 3.573,2.115 6.517,4.863 8.834,8.237 2.314,3.375 3.97,7.212 4.962,11.514 0.993,4.299 1.489,8.699 1.489,13.2 M -312.014,0 h 21.438 v -13.894 h 0.397 c 3.176,5.954 7.608,10.222 13.299,12.802 5.689,2.581 11.842,3.871 18.461,3.871 8.07,0 15.117,-1.424 21.141,-4.268 6.019,-2.847 11.016,-6.749 14.986,-11.711 3.97,-4.962 6.947,-10.753 8.933,-17.368 1.984,-6.619 2.977,-13.697 2.977,-21.24 0,-6.882 -0.893,-13.566 -2.68,-20.048 -1.787,-6.485 -4.5,-12.208 -8.138,-17.171 -3.642,-4.962 -8.238,-8.932 -13.796,-11.91 -5.558,-2.977 -12.108,-4.466 -19.651,-4.466 -3.31,0 -6.62,0.298 -9.925,0.894 -3.31,0.595 -6.486,1.556 -9.529,2.878 -3.045,1.321 -5.855,3.008 -8.436,5.061 -2.58,2.051 -4.733,4.467 -6.451,7.245 h -0.397 v -51.213 h -22.629 z m -76.024,0 h 17.071 v 30.768 h 22.629 V 0 h 20.445 v -16.872 h -20.445 v -54.786 c 0,-2.382 0.1,-4.435 0.298,-6.153 0.198,-1.722 0.66,-3.176 1.39,-4.367 0.725,-1.192 1.817,-2.084 3.275,-2.68 1.454,-0.596 3.439,-0.893 5.954,-0.893 1.589,0 3.177,0.031 4.765,0.099 1.588,0.066 3.176,0.298 4.763,0.694 v -17.467 c -2.515,-0.264 -4.961,-0.528 -7.344,-0.794 -2.382,-0.264 -4.832,-0.398 -7.344,-0.398 -5.955,0 -10.754,0.565 -14.392,1.688 -3.641,1.123 -6.485,2.779 -8.535,4.963 -2.054,2.183 -3.443,4.927 -4.169,8.237 -0.728,3.307 -1.16,7.078 -1.29,11.314 v 60.543 h -17.071 z m -74.635,-69.672 c 0.66,-6.62 3.176,-11.25 7.543,-13.896 4.366,-2.648 9.593,-3.97 15.681,-3.97 2.115,0 4.532,0.164 7.246,0.496 2.71,0.33 5.26,0.959 7.641,1.886 2.382,0.924 4.333,2.283 5.857,4.07 1.519,1.786 2.214,4.134 2.084,7.046 -0.134,2.91 -1.191,5.291 -3.176,7.146 -1.985,1.852 -4.535,3.341 -7.642,4.467 -3.112,1.122 -6.65,2.084 -10.621,2.878 -3.969,0.794 -8.007,1.653 -12.108,2.58 -4.236,0.925 -8.306,2.051 -12.208,3.375 -3.904,1.321 -7.412,3.107 -10.52,5.359 -3.111,2.249 -5.592,5.127 -7.444,8.635 -1.854,3.505 -2.779,7.841 -2.779,13.002 0,5.557 1.355,10.223 4.069,13.994 2.711,3.771 6.154,6.813 10.322,9.13 4.169,2.314 8.799,3.936 13.895,4.864 5.093,0.924 9.956,1.389 14.59,1.389 5.292,0 10.353,-0.565 15.185,-1.687 4.829,-1.126 9.197,-2.947 13.101,-5.459 3.902,-2.515 7.146,-5.791 9.727,-9.825 2.581,-4.038 4.2,-8.901 4.863,-14.59 h -23.621 c -1.061,5.425 -3.542,9.063 -7.444,10.917 -3.905,1.853 -8.371,2.78 -13.399,2.78 -1.588,0 -3.474,-0.133 -5.657,-0.397 -2.184,-0.267 -4.237,-0.764 -6.154,-1.489 -1.92,-0.729 -3.542,-1.786 -4.863,-3.176 -1.324,-1.39 -1.985,-3.21 -1.985,-5.459 0,-2.779 0.959,-5.03 2.879,-6.749 1.917,-1.721 4.431,-3.145 7.543,-4.268 3.107,-1.126 6.649,-2.084 10.619,-2.877 3.97,-0.794 8.07,-1.657 12.307,-2.582 4.1,-0.926 8.139,-2.052 12.109,-3.374 3.97,-1.324 7.509,-3.111 10.62,-5.359 3.107,-2.252 5.623,-5.097 7.543,-8.536 1.916,-3.442 2.878,-7.676 2.878,-12.704 0,-6.088 -1.39,-11.249 -4.169,-15.483 -2.778,-4.237 -6.386,-7.676 -10.818,-10.322 -4.435,-2.648 -9.364,-4.565 -14.789,-5.757 -5.427,-1.19 -10.787,-1.786 -16.078,-1.786 -6.485,0 -12.474,0.729 -17.964,2.184 -5.493,1.455 -10.257,3.672 -14.292,6.649 -4.039,2.978 -7.214,6.681 -9.528,11.116 -2.317,4.433 -3.542,9.693 -3.673,15.782 z m -38.508,-32.952 h -22.232 v 14.292 h -0.396 c -2.779,-5.161 -6.917,-9.298 -12.406,-12.406 -5.493,-3.108 -11.085,-4.665 -16.774,-4.665 -13.498,0 -23.259,3.341 -29.279,10.025 -6.023,6.68 -9.031,16.773 -9.031,30.271 V 0 h 22.629 v -62.923 c 0,-9.001 1.717,-15.354 5.161,-19.057 3.439,-3.706 8.268,-5.558 14.49,-5.558 4.764,0 8.734,0.726 11.91,2.184 3.176,1.454 5.757,3.405 7.741,5.855 1.986,2.448 3.406,5.391 4.268,8.833 0.859,3.44 1.291,7.147 1.291,11.117 V 0 h 22.628 z M -665.169,0 h 21.239 v -19.849 h 0.398 c 0.66,2.779 1.95,5.489 3.87,8.138 1.917,2.645 4.234,5.061 6.948,7.245 2.71,2.183 5.722,3.936 9.031,5.26 3.307,1.321 6.681,1.985 10.123,1.985 2.647,0 4.467,-0.068 5.459,-0.198 0.994,-0.134 2.017,-0.267 3.078,-0.397 v -21.835 c -1.588,0.264 -3.21,0.496 -4.864,0.695 -1.656,0.199 -3.275,0.297 -4.863,0.297 -3.84,0 -7.444,-0.762 -10.818,-2.282 -3.374,-1.523 -6.322,-3.771 -8.833,-6.749 -2.516,-2.977 -4.501,-6.649 -5.955,-11.017 -1.458,-4.367 -2.184,-9.398 -2.184,-15.085 v -48.832 h -22.629 z m -109.768,39.104 h 114.733 V 17.667 h -45.06 v -120.291 h -24.812 V 17.667 h -44.861 z" /></g></g></g><g
       transform="translate(103.6449,179.6706)"
       id="g24"><path
         id="path26"
         style="fill:#2b2b2a;fill-opacity:1;fill-rule:nonzero;stroke:none"
         d="m 0,0 -103.645,0.017 83.854,-60.939 -32.023,-98.572 83.842,60.913 51.803,37.637 83.845,60.915 v 0.001 L 64.035,-0.011 32.016,98.551 Z m 32.028,-98.581 83.817,-60.913 -24.757,76.207 z" /></g></g></svg>